<svg id="icons" enable-background="new 0 0 64 64" height="512" viewBox="0 0 64 64" width="512" xmlns="http://www.w3.org/2000/svg"><path d="m61.01 5h-58.02c-1.1 0-1.99.89-1.99 1.99v37.01h.05 61.95v-37.01c0-1.1-.89-1.99-1.99-1.99z" fill="#656d78"/><path d="m23 56h18 2c1.11 0 2 .89 2 2v1h-26v-1c0-1.11.9-2 2-2z" fill="#e6e9ed"/><path d="m39 48 2 8h-18l2-8z" fill="#ccd1d9"/><path d="m1.05 44h61.95v2.01c0 1.1-.89 1.99-1.99 1.99h-22.01-14-22.01c-1.1 0-1.99-.89-1.99-1.99v-2.01z" fill="#e6e9ed"/><path d="m25.91 16.84c-.44 0-.851.11-1.2.311h-.01c0-.011 0-.011 0-.021 0-1.149-.94-2.08-2.101-2.08-1.159 0-2.1.931-2.1 2.08 0-1.149-.94-2.08-2.1-2.08s-2.101.931-2.101 2.08v.021h-.01c-.35-.2-.75-.311-1.19-.311-1.319 0-2.39 1.061-2.39 2.37 0 .33.06.64.18.93-.83.471-1.39 1.33-1.39 2.341 0 .75.32 1.43.82 1.909-.49.391-.82.98-.82 1.65 0 .66.31 1.24.8 1.63-.13.33-.2.67-.2 1.04 0 1.63 1.351 2.96 3.011 2.97.159 1.34 1.3 2.37 2.689 2.37 1.5 0 2.7-1.189 2.7-2.67 0 1.48 1.21 2.67 2.7 2.67 1.399 0 2.54-1.03 2.7-2.37 1.649-.01 3-1.34 3-2.97 0-.37-.07-.71-.19-1.04.49-.39.79-.97.79-1.63 0-.67-.32-1.26-.81-1.65.5-.479.81-1.159.81-1.909 0-1.011-.56-1.881-1.39-2.341.12-.279.189-.6.189-.93.003-1.31-1.067-2.37-2.387-2.37zm-5.41-5.84c7.46 0 13.5 6.04 13.5 13.5s-6.04 13.5-13.5 13.5c-7.45 0-13.5-6.04-13.5-13.5s6.05-13.5 13.5-13.5z" fill="#545c66"/><path d="m24.71 17.15c.35-.2.76-.311 1.2-.311 1.32 0 2.39 1.061 2.39 2.37 0 .33-.069.65-.189.93.83.46 1.39 1.33 1.39 2.341 0 .75-.31 1.43-.81 1.909.489.391.81.98.81 1.65 0 .66-.3 1.24-.79 1.63.12.33.19.67.19 1.04 0 1.63-1.351 2.96-3 2.97-.16 1.34-1.301 2.37-2.7 2.37-1.49 0-2.7-1.189-2.7-2.67v-5.33-8.92c0-1.149.94-2.08 2.1-2.08s2.101.931 2.101 2.08v.021z" fill="#ec87c0"/><path d="m18.4 15.05c1.159 0 2.1.931 2.1 2.08v8.92 5.33c0 1.48-1.2 2.67-2.7 2.67-1.39 0-2.53-1.03-2.689-2.37-1.66-.01-3.011-1.34-3.011-2.97 0-.37.07-.71.2-1.04-.49-.39-.8-.97-.8-1.63 0-.67.33-1.26.82-1.65-.5-.479-.82-1.159-.82-1.909 0-1.011.56-1.87 1.39-2.341-.12-.29-.18-.6-.18-.93 0-1.31 1.07-2.37 2.39-2.37.44 0 .841.11 1.19.311h.01c0-.011 0-.011 0-.021 0-1.15.94-2.08 2.1-2.08z" fill="#ec87c0"/><path d="m32.03 46.999c-.553 0-1.005-.447-1.005-1s.442-1 .994-1h.011c.552 0 1 .447 1 1s-.448 1-1 1z"/><path d="m63 44.999h-61.953c-.553 0-1-.447-1-1s.447-1 1-1h61.953c.553 0 1 .447 1 1s-.447 1-1 1z"/><path d="m61 48.999h-58c-1.654 0-3-1.346-3-3v-38.998c0-1.654 1.346-3 3-3h58c1.654 0 3 1.346 3 3v38.998c0 1.654-1.346 3-3 3zm-58-42.998c-.552 0-1 .448-1 1v38.998c0 .552.448 1 1 1h58c.552 0 1-.448 1-1v-38.998c0-.552-.448-1-1-1z"/><path d="m23.001 56.999c-.08 0-.162-.01-.243-.03-.536-.134-.862-.677-.728-1.212l2-8c.133-.536.677-.864 1.212-.728.536.134.862.677.728 1.212l-2 8c-.114.455-.521.758-.969.758z"/><path d="m40.999 56.999c-.448 0-.855-.303-.969-.758l-2-8c-.135-.535.191-1.078.728-1.212.534-.136 1.078.191 1.212.728l2 8c.135.535-.191 1.078-.728 1.212-.081.02-.163.03-.243.03z"/><path d="m19 58.999c-.553 0-1-.447-1-1 0-1.654 1.346-3 3-3 .553 0 1 .447 1 1s-.447 1-1 1c-.552 0-1 .448-1 1 0 .553-.447 1-1 1z"/><path d="m45 58.999c-.553 0-1-.447-1-1 0-.552-.448-1-1-1-.553 0-1-.447-1-1s.447-1 1-1c1.654 0 3 1.346 3 3 0 .553-.447 1-1 1z"/><path d="m43 56.999h-22c-.553 0-1-.447-1-1s.447-1 1-1h22c.553 0 1 .447 1 1s-.447 1-1 1z"/><path d="m19 59.999c-.553 0-1-.447-1-1v-1c0-.553.447-1 1-1s1 .447 1 1v1c0 .553-.447 1-1 1z"/><path d="m45 59.999h-26c-.553 0-1-.447-1-1s.447-1 1-1h26c.553 0 1 .447 1 1s-.447 1-1 1z"/><path d="m45 59.999c-.553 0-1-.447-1-1v-1c0-.553.447-1 1-1s1 .447 1 1v1c0 .553-.447 1-1 1z"/><path d="m16.521 19.055c-.366 0-.72-.202-.895-.552-.212-.422-.324-.896-.324-1.371 0-1.697 1.39-3.078 3.099-3.078 1.71 0 3.101 1.381 3.101 3.078 0 .553-.447 1-1 1s-1-.447-1-1c0-.595-.494-1.078-1.101-1.078-.605 0-1.099.483-1.099 1.078 0 .167.037.327.111.475.248.493.049 1.095-.445 1.342-.143.072-.296.106-.447.106z"/><path d="m17.804 35.054c-2.042 0-3.704-1.647-3.704-3.672 0-.842.295-1.663.829-2.313.352-.426.98-.487 1.408-.137.426.351.487.981.137 1.408-.245.297-.374.657-.374 1.042 0 .922.765 1.672 1.704 1.672.937 0 1.698-.75 1.698-1.672 0-.553.447-1 1-1s1 .447 1 1c0 2.024-1.659 3.672-3.698 3.672z"/><path d="m15.125 32.679c-2.218 0-4.021-1.78-4.021-3.969 0-.483.087-.956.257-1.403.197-.516.773-.776 1.291-.578.516.197.774.774.578 1.291-.084.219-.126.451-.126.69 0 1.086.907 1.969 2.021 1.969.553 0 1 .447 1 1s-.447 1-1 1z"/><path d="m12.296 28.664c-.215 0-.432-.069-.615-.212-.749-.586-1.179-1.467-1.179-2.416 0-.956.439-1.844 1.207-2.436.437-.339 1.065-.256 1.402.182.337.437.256 1.065-.182 1.402-.271.21-.428.521-.428.852 0 .33.149.636.411.84.435.34.512.969.172 1.404-.196.252-.49.384-.788.384z"/><path d="m12.319 25.393c-.25 0-.5-.093-.693-.279-.725-.698-1.124-1.635-1.124-2.638 0-1.337.732-2.568 1.913-3.213.484-.267 1.091-.089 1.356.397.266.484.088 1.092-.397 1.356-.538.295-.872.854-.872 1.459 0 .454.182.879.511 1.197.398.383.41 1.016.027 1.413-.196.205-.459.308-.721.308z"/><path d="m12.893 21.139c-.39 0-.76-.229-.921-.61-.177-.418-.267-.861-.267-1.318 0-1.861 1.522-3.375 3.395-3.375.593 0 1.177.153 1.688.444.479.273.647.884.374 1.364-.274.479-.886.646-1.364.374-.212-.121-.447-.183-.697-.183-.769 0-1.395.617-1.395 1.375 0 .188.036.369.108.539.215.509-.022 1.096-.531 1.311-.128.053-.26.079-.39.079z"/><path d="m24.484 19.056c-.149 0-.301-.033-.443-.104-.495-.245-.697-.846-.451-1.34.074-.149.111-.311.111-.479 0-.595-.493-1.078-1.099-1.078s-1.101.483-1.101 1.078c0 .553-.447 1-1 1s-1-.447-1-1c0-1.697 1.391-3.078 3.101-3.078 1.709 0 3.099 1.381 3.099 3.078 0 .48-.107.94-.32 1.368-.175.352-.528.555-.897.555z"/><path d="m23.2 35.054c-2.039 0-3.698-1.647-3.698-3.672 0-.553.447-1 1-1s1 .447 1 1c0 .922.762 1.672 1.698 1.672.939 0 1.704-.75 1.704-1.672 0-.302-.082-.596-.236-.852-.286-.473-.135-1.087.338-1.373.474-.287 1.088-.134 1.373.338.344.568.525 1.221.525 1.887 0 2.024-1.662 3.672-3.704 3.672z"/><path d="m25.879 32.679c-.553 0-1-.447-1-1s.447-1 1-1c1.114 0 2.021-.883 2.021-1.969 0-.238-.042-.472-.126-.694-.195-.517.065-1.093.583-1.288.517-.196 1.093.065 1.288.583.169.447.255.919.255 1.399 0 2.188-1.803 3.969-4.021 3.969z"/><path d="m28.708 28.664c-.298 0-.592-.132-.789-.384-.34-.436-.263-1.064.172-1.404.262-.204.411-.51.411-.84 0-.331-.156-.642-.428-.852-.438-.337-.519-.966-.182-1.402.337-.438.965-.521 1.402-.182.768.592 1.207 1.479 1.207 2.436 0 .949-.43 1.83-1.179 2.416-.182.143-.399.212-.614.212z"/><path d="m28.685 25.393c-.262 0-.524-.103-.721-.307-.383-.397-.371-1.03.027-1.413.329-.318.511-.743.511-1.197 0-.605-.334-1.164-.872-1.459-.485-.265-.663-.872-.397-1.356.266-.486.872-.664 1.356-.397 1.181.645 1.913 1.876 1.913 3.213 0 1.003-.399 1.939-1.124 2.638-.193.185-.443.278-.693.278z"/><path d="m27.408 22.058c-.294 0-.584-.128-.781-.375-.346-.431-.275-1.061.155-1.405.328-.264.517-.652.517-1.067 0-.758-.626-1.375-1.395-1.375-.25 0-.485.062-.697.183-.481.272-1.091.105-1.364-.374-.273-.48-.105-1.091.374-1.364.511-.291 1.095-.444 1.688-.444 1.872 0 3.395 1.514 3.395 3.375 0 1.025-.462 1.983-1.267 2.628-.185.146-.406.218-.625.218z"/><path d="m20.502 32.382c-.553 0-1-.447-1-1v-14.25c0-.553.447-1 1-1s1 .447 1 1v14.25c0 .553-.447 1-1 1z"/><path d="m20.502 27.045c-.553 0-1-.447-1-1 0-1.646 1.346-2.983 3-2.983.553 0 1 .447 1 1s-.447 1-1 1c-.552 0-1 .441-1 .983 0 .553-.447 1-1 1z"/><path d="m20.502 27.045c-.553 0-1-.447-1-1 0-.542-.448-.983-1-.983-.553 0-1-.447-1-1s.447-1 1-1c1.654 0 3 1.338 3 2.983 0 .553-.447 1-1 1z"/><path d="m20.502 39c-7.995 0-14.5-6.505-14.5-14.5s6.505-14.5 14.5-14.5 14.5 6.505 14.5 14.5-6.505 14.5-14.5 14.5zm0-27c-6.893 0-12.5 5.607-12.5 12.5s5.607 12.5 12.5 12.5 12.5-5.607 12.5-12.5-5.607-12.5-12.5-12.5z"/><path d="m56 14h-15.999c-.553 0-1-.447-1-1s.447-1 1-1h15.999c.553 0 1 .447 1 1s-.447 1-1 1z"/><path d="m56 17h-15.999c-.553 0-1-.447-1-1s.447-1 1-1h15.999c.553 0 1 .447 1 1s-.447 1-1 1z"/><path d="m49 20h-8.999c-.553 0-1-.447-1-1s.447-1 1-1h8.999c.553 0 1 .447 1 1s-.447 1-1 1z"/><path d="m50 26h-10c-.553 0-1-.447-1-1s.447-1 1-1h10c.553 0 1 .447 1 1s-.447 1-1 1z"/><path d="m56 26h-.999c-.553 0-1-.447-1-1s.447-1 1-1h.999c.553 0 1 .447 1 1s-.447 1-1 1z"/><path d="m44.995 29h-4.995c-.553 0-1-.447-1-1s.447-1 1-1h4.995c.553 0 1 .447 1 1s-.447 1-1 1z"/><path d="m56 29h-.999c-.553 0-1-.447-1-1s.447-1 1-1h.999c.553 0 1 .447 1 1s-.447 1-1 1z"/><path d="m46.997 32h-6.997c-.553 0-1-.447-1-1s.447-1 1-1h6.997c.553 0 1 .447 1 1s-.447 1-1 1z"/><path d="m56 32h-.999c-.553 0-1-.447-1-1s.447-1 1-1h.999c.553 0 1 .447 1 1s-.447 1-1 1z"/><path d="m48.999 35h-8.999c-.553 0-1-.447-1-1s.447-1 1-1h8.999c.553 0 1 .447 1 1s-.447 1-1 1z"/><path d="m56 35h-.999c-.553 0-1-.447-1-1s.447-1 1-1h.999c.553 0 1 .447 1 1s-.447 1-1 1z"/><path d="m45.996 38h-5.996c-.553 0-1-.447-1-1s.447-1 1-1h5.996c.553 0 1 .447 1 1s-.447 1-1 1z"/><path d="m56 38h-.999c-.553 0-1-.447-1-1s.447-1 1-1h.999c.553 0 1 .447 1 1s-.447 1-1 1z"/></svg>